<svg width="56" height="56" viewBox="0 0 56 56" fill="none" xmlns="http://www.w3.org/2000/svg">
<path d="M28 0C43.464 0 56 12.536 56 28C56 43.464 43.464 56 28 56C12.536 56 0 43.464 0 28C0 12.536 12.536 0 28 0ZM36.1748 21.0996C35.6778 20.7271 34.9723 20.8282 34.5996 21.3252L26.3271 32.3535L21.2412 27.9033C20.7737 27.4942 20.0625 27.5414 19.6533 28.0088C19.2442 28.4763 19.2914 29.1875 19.7588 29.5967L25.7588 34.8467L26.6719 35.6455L27.4004 34.6748L36.4004 22.6748C36.7729 22.1778 36.6718 21.4723 36.1748 21.0996Z" fill="#F5EBE5"/>
</svg>
