<svg width="23" height="23" viewBox="0 0 23 23" fill="none" xmlns="http://www.w3.org/2000/svg">
<path d="M4.97973 3.75195C1.1311 5.8009 0 9.53304 0 11.5597C0 14.4497 2.3 20.8076 11.5 20.8076C15.1855 20.8076 17.7637 19.7873 19.5303 18.3783L14.5401 13.3621C14.0207 14.3609 13.0073 15.0277 11.5 15.0277C9.2 15.0277 8.05 13.4751 8.05 11.5597C8.05 10.2343 8.60068 9.08261 9.70203 8.49887L4.97973 3.75195Z" fill="#414141"/>
<path d="M14.9441 11.3163C14.8533 9.58221 13.7862 8.19929 11.7429 8.09836L6.69336 3.02256C8.03472 2.57697 9.62408 2.3125 11.5005 2.3125C20.7005 2.3125 23.0005 8.67045 23.0005 11.5605C23.0005 12.9837 22.4426 15.2482 20.7774 17.1799L14.9441 11.3163Z" fill="#414141"/>
<path d="M0.302094 0.256529C0.637178 -0.0803012 1.18045 -0.0803012 1.51554 0.256529L22.6803 21.5315C23.0154 21.8684 23.0154 22.4145 22.6803 22.7513C22.3452 23.0882 21.8019 23.0882 21.4668 22.7513L0.302094 1.4763C-0.0329898 1.13947 -0.0329898 0.593358 0.302094 0.256529Z" fill="#414141"/>
</svg>
