<svg width="24" height="24" viewBox="0 0 24 24" fill="none" xmlns="http://www.w3.org/2000/svg">
<path d="M11.0299 8.96985C10.8877 8.83737 10.6997 8.76524 10.5054 8.76867C10.3111 8.7721 10.1257 8.85081 9.98829 8.98823C9.85088 9.12564 9.77216 9.31102 9.76873 9.50532C9.76531 9.69963 9.83743 9.88767 9.96991 10.0298L11.9399 11.9998L9.96991 13.9698C9.89622 14.0385 9.83712 14.1213 9.79613 14.2133C9.75514 14.3053 9.73309 14.4046 9.73132 14.5053C9.72954 14.606 9.74807 14.7061 9.78579 14.7994C9.82351 14.8928 9.87965 14.9777 9.95087 15.0489C10.0221 15.1201 10.1069 15.1762 10.2003 15.214C10.2937 15.2517 10.3937 15.2702 10.4944 15.2684C10.5951 15.2667 10.6944 15.2446 10.7864 15.2036C10.8784 15.1626 10.9612 15.1035 11.0299 15.0298L12.9999 13.0598L14.9699 15.0298C15.1121 15.1623 15.3001 15.2345 15.4944 15.231C15.6887 15.2276 15.8741 15.1489 16.0115 15.0115C16.1489 14.8741 16.2277 14.6887 16.2311 14.4944C16.2345 14.3001 16.1624 14.112 16.0299 13.9698L14.0599 11.9998L16.0299 10.0298C16.1624 9.88767 16.2345 9.69963 16.2311 9.50532C16.2277 9.31102 16.1489 9.12564 16.0115 8.98823C15.8741 8.85081 15.6887 8.7721 15.4944 8.76867C15.3001 8.76524 15.1121 8.83737 14.9699 8.96985L12.9999 10.9398L11.0299 8.96985Z" fill="#C0C0C0"/>
<path fill-rule="evenodd" clip-rule="evenodd" d="M21.32 4.634C20.554 3.889 19.585 3.56 18.387 3.403C17.219 3.25 15.725 3.25 13.834 3.25H11.106C10.023 3.25 9.158 3.25 8.45 3.316C7.72 3.384 7.1 3.526 6.515 3.841C5.929 4.157 5.475 4.595 5.025 5.165C4.592 5.716 4.133 6.431 3.56 7.323L2.837 8.45C2.359 9.194 1.968 9.802 1.702 10.332C1.424 10.885 1.25 11.412 1.25 12.001C1.25 12.59 1.424 13.117 1.702 13.671C1.968 14.201 2.359 14.808 2.837 15.552L3.56 16.678C4.133 17.57 4.592 18.285 5.026 18.836C5.475 19.406 5.929 19.844 6.516 20.16C7.1 20.475 7.719 20.617 8.45 20.685C9.158 20.751 10.023 20.751 11.106 20.751H13.834C15.725 20.751 17.219 20.751 18.387 20.598C19.585 20.441 20.554 20.112 21.319 19.367C22.087 18.62 22.429 17.669 22.592 16.493C22.75 15.353 22.75 13.895 22.75 12.059V11.943C22.75 10.107 22.75 8.65 22.592 7.509C22.43 6.333 22.087 5.383 21.319 4.635M13.778 4.751C15.736 4.751 17.132 4.753 18.191 4.891C19.231 5.027 19.833 5.283 20.272 5.711C20.708 6.134 20.967 6.712 21.106 7.715C21.247 8.741 21.249 10.094 21.249 12.001C21.249 13.908 21.247 15.261 21.106 16.287C20.967 17.29 20.708 17.867 20.272 18.292C19.833 18.719 19.231 18.975 18.191 19.111C17.131 19.25 15.736 19.251 13.778 19.251H11.141C10.014 19.251 9.219 19.251 8.588 19.191C7.973 19.134 7.571 19.026 7.226 18.839C6.882 18.654 6.576 18.382 6.203 17.907C5.819 17.42 5.399 16.767 4.801 15.836L4.12 14.776C3.615 13.989 3.268 13.448 3.042 12.997C2.823 12.562 2.749 12.272 2.749 12.001C2.749 11.73 2.823 11.44 3.042 11.005C3.268 10.555 3.615 10.013 4.12 9.226L4.8 8.166C5.399 7.236 5.82 6.582 6.203 6.095C6.577 5.62 6.883 5.348 7.226 5.163C7.571 4.976 7.973 4.868 8.588 4.81C9.218 4.752 10.014 4.751 11.141 4.751H13.778Z" fill="#C0C0C0"/>
</svg>
