<svg width="20" height="20" viewBox="0 0 20 20" fill="none" xmlns="http://www.w3.org/2000/svg">
<path fill-rule="evenodd" clip-rule="evenodd" d="M19.0003 9.9559C19.002 9.7172 18.9088 9.4876 18.7412 9.31762L16.4912 7.03568C16.1422 6.68174 15.5723 6.67772 15.2184 7.02671C14.8645 7.37569 14.8604 7.94553 15.2094 8.29947L15.949 9.04955L9.75936 9.04964C9.26231 9.04964 8.85937 9.45259 8.85938 9.94965C8.85939 10.4467 9.26233 10.8496 9.75939 10.8496L15.9053 10.8495L15.2185 11.5266C14.8645 11.8756 14.8604 12.4454 15.2094 12.7994C15.5583 13.1534 16.1282 13.1574 16.4821 12.8085L18.7321 10.5904C18.9021 10.4229 18.9986 10.1946 19.0003 9.9559Z" fill="#414141"/>
<path d="M11.1932 3.05409C11.0079 3.00766 10.7544 3.00009 9.88008 3.00009H7.97701C6.54595 3.00009 5.57247 3.00218 4.84293 3.09955C4.1417 3.19313 3.81612 3.35825 3.59433 3.57739L3.5773 3.59442C3.35816 3.81621 3.19304 4.14179 3.09946 4.84302C3.00209 5.57256 3 6.54604 3 7.9771V12.0231C3 13.4541 3.00209 14.4276 3.09946 15.1572C3.19304 15.8584 3.35816 16.184 3.5773 16.4058L3.59433 16.4228C3.81612 16.6419 4.1417 16.8071 4.84293 16.9006C5.57247 16.998 6.54595 17.0001 7.97702 17.0001H9.88763C10.7543 17.0001 11.0057 16.9927 11.1895 16.947C11.8365 16.7863 12.3418 16.2811 12.5025 15.634C12.5474 15.4532 12.5553 15.207 12.5556 14.374L12.5555 14.3693L12.5556 14.3642C12.5556 14.3536 12.5556 14.3429 12.5556 14.3322C12.5751 13.7971 13.0157 13.3693 13.5555 13.3693C14.0954 13.3693 14.5354 13.7971 14.5549 14.3322L14.5556 14.4561C14.556 15.1415 14.5563 15.662 14.4435 16.1161C14.1042 17.4821 13.0376 18.5487 11.6716 18.888C11.2175 19.0008 10.697 19.0005 10.0116 19.0001H7.90702C6.56359 19.0001 5.45576 19.0002 4.57836 18.8831C3.65745 18.7602 2.84329 18.4923 2.18865 17.8455L2.1546 17.8114C1.50779 17.1568 1.23994 16.3426 1.11703 15.4217C0.999939 14.5443 0.999967 13.4365 1 12.0931V7.90711C0.999967 6.56368 0.999939 5.45585 1.11703 4.57845C1.23994 3.65754 1.50779 2.84338 2.1546 2.18874L2.18865 2.15469C2.84329 1.50788 3.65745 1.24003 4.57836 1.11712C5.45576 1.00003 6.56359 1.00006 7.90702 1.00009L10.0051 1.00005C10.6965 0.999646 11.2215 0.999347 11.6794 1.1141C13.0391 1.45488 14.1008 2.51656 14.4416 3.87628C14.5563 4.33411 14.556 4.85917 14.5556 5.5505V5.67557C14.5547 6.22711 14.1073 6.67395 13.5555 6.67395C13.0033 6.67395 12.5555 6.22623 12.5555 5.67395L12.5556 5.66823C12.5555 4.79987 12.5479 4.54727 12.5016 4.3625C12.3401 3.71842 11.8372 3.21552 11.1932 3.05409Z" fill="#414141"/>
</svg>
