<svg width="205" height="51" viewBox="0 0 205 51" fill="none" xmlns="http://www.w3.org/2000/svg">
<path d="M60.8768 15.24C60.6101 15.24 60.3968 15.2933 60.2368 15.4C60.1034 15.48 59.9968 15.5867 59.9168 15.72C59.8634 15.8533 59.8234 15.9867 59.7968 16.12C59.7968 16.2267 59.7968 16.32 59.7968 16.4C59.6634 19.0667 59.5834 21.64 59.5568 24.12C59.5301 26.6 59.5434 28.9733 59.5968 31.24C59.6234 31.4 59.6768 31.6267 59.7568 31.92C59.8368 32.2133 60.1168 32.36 60.5968 32.36H63.3968C65.3168 32.36 66.8234 31.6533 67.9168 30.24C69.0368 28.8267 69.5968 26.7067 69.5968 23.88C69.5968 20.8933 69.0768 18.7067 68.0368 17.32C66.9968 15.9333 65.4501 15.24 63.3968 15.24H60.8768ZM63.4768 8.56C65.8501 8.56 67.8501 9 69.4768 9.88C71.1034 10.7333 72.4234 11.88 73.4368 13.32C74.4768 14.76 75.2234 16.4 75.6768 18.24C76.1301 20.08 76.3568 21.9733 76.3568 23.92C76.3568 26.0267 76.0634 28 75.4768 29.84C74.8901 31.68 74.0501 33.28 72.9568 34.64C71.8634 36 70.5168 37.0667 68.9168 37.84C67.3168 38.64 65.5034 39.04 63.4768 39.04H56.1568C55.3034 39.04 54.5568 38.8133 53.9168 38.36C53.3034 37.9067 52.9701 37.2267 52.9168 36.32C52.8901 35.7333 52.8634 34.7867 52.8368 33.48C52.8101 32.1733 52.7834 30.6933 52.7568 29.04C52.7568 27.3867 52.7568 25.6533 52.7568 23.84C52.7834 22 52.8101 20.2667 52.8368 18.64C52.8634 16.9867 52.9034 15.5333 52.9568 14.28C53.0368 13 53.1168 12.08 53.1968 11.52C53.2768 11.04 53.4501 10.6133 53.7168 10.24C53.9834 9.86667 54.2901 9.56 54.6368 9.32C54.9834 9.05333 55.3301 8.86667 55.6768 8.76C56.0501 8.62667 56.3568 8.56 56.5968 8.56H63.4768ZM109.359 39.44C107.679 39.44 106.119 39.16 104.679 38.6C103.266 38.04 102.039 37.2533 100.999 36.24C99.9856 35.2 99.1856 33.9733 98.5989 32.56C98.0389 31.1467 97.7589 29.5867 97.7589 27.88C97.7589 26.12 98.0523 24.52 98.6389 23.08C99.2523 21.6133 100.079 20.3733 101.119 19.36C102.159 18.3467 103.386 17.56 104.799 17C106.212 16.44 107.732 16.16 109.359 16.16C111.012 16.16 112.532 16.44 113.919 17C115.332 17.56 116.559 18.3467 117.599 19.36C118.639 20.3733 119.452 21.6133 120.039 23.08C120.626 24.52 120.919 26.12 120.919 27.88C120.919 29.5867 120.639 31.1467 120.079 32.56C119.546 33.9733 118.772 35.2 117.759 36.24C116.746 37.2533 115.532 38.04 114.119 38.6C112.706 39.16 111.119 39.44 109.359 39.44ZM109.359 32.64C110.132 32.64 110.812 32.5067 111.399 32.24C111.986 31.9467 112.466 31.5867 112.839 31.16C113.239 30.7067 113.532 30.2 113.719 29.64C113.932 29.0533 114.039 28.4667 114.039 27.88C114.039 26.44 113.626 25.2667 112.799 24.36C111.999 23.4267 110.852 22.96 109.359 22.96C107.866 22.96 106.706 23.4267 105.879 24.36C105.052 25.2933 104.639 26.4667 104.639 27.88C104.639 28.4667 104.732 29.0533 104.919 29.64C105.132 30.2 105.426 30.7067 105.799 31.16C106.199 31.5867 106.692 31.9467 107.279 32.24C107.866 32.5067 108.559 32.64 109.359 32.64ZM128.591 26.96C128.591 27.4667 128.591 28.1067 128.591 28.88C128.591 29.6533 128.591 30.4667 128.591 31.32C128.591 32.1733 128.591 33.0133 128.591 33.84C128.617 34.6667 128.644 35.4 128.671 36.04C128.671 36.44 128.591 36.8133 128.431 37.16C128.271 37.5333 128.044 37.8533 127.751 38.12C127.457 38.4133 127.097 38.64 126.671 38.8C126.271 38.96 125.817 39.04 125.311 39.04C124.111 39.04 123.231 38.7333 122.671 38.12C122.137 37.5333 121.844 36.8667 121.791 36.12C121.764 35.56 121.737 34.8267 121.711 33.92C121.711 33.0133 121.711 32.0533 121.711 31.04C121.711 30.0267 121.711 29.04 121.711 28.08C121.737 27.0933 121.751 26.28 121.751 25.64C121.751 24.28 121.924 23.04 122.271 21.92C122.644 20.7733 123.191 19.8 123.911 19C124.631 18.2 125.524 17.5867 126.591 17.16C127.684 16.7067 128.951 16.48 130.391 16.48H134.471C135.271 16.48 135.897 16.8267 136.351 17.52C136.831 18.2133 137.071 19.0267 137.071 19.96C137.071 20.8133 136.844 21.5733 136.391 22.24C135.964 22.9067 135.311 23.24 134.431 23.24H132.551C131.431 23.24 130.484 23.52 129.711 24.08C128.964 24.6133 128.591 25.5733 128.591 26.96ZM146.733 16.48C147.427 16.48 148.013 16.8 148.493 17.44C148.973 18.08 149.213 18.8667 149.213 19.8C149.213 20.76 148.96 21.56 148.453 22.2C147.973 22.84 147.4 23.16 146.733 23.16H145.933C145 23.16 144.187 23.5733 143.493 24.4C142.827 25.2 142.493 26.36 142.493 27.88C142.493 28.68 142.627 29.3867 142.893 30C143.16 30.6133 143.52 31.12 143.973 31.52C144.453 31.92 145 32.2267 145.613 32.44C146.227 32.6533 146.88 32.76 147.573 32.76H149.333C149.573 32.76 149.76 32.72 149.893 32.64C150.053 32.5333 150.173 32.4133 150.253 32.28C150.333 32.1467 150.373 32.0267 150.373 31.92C150.4 31.7867 150.413 31.68 150.413 31.6C150.493 29.92 150.547 28.1467 150.573 26.28C150.6 24.4133 150.6 22.5733 150.573 20.76C150.547 18.9467 150.52 17.2133 150.493 15.56C150.467 13.88 150.427 12.4133 150.373 11.16C150.347 10.4933 150.613 9.89333 151.173 9.36C151.733 8.82667 152.613 8.56 153.813 8.56C154.853 8.56 155.68 8.81333 156.293 9.32C156.907 9.8 157.227 10.4 157.253 11.12C157.28 11.7067 157.293 12.6533 157.293 13.96C157.32 15.24 157.333 16.7067 157.333 18.36C157.36 19.9867 157.373 21.72 157.373 23.56C157.373 25.4 157.36 27.1467 157.333 28.8C157.307 30.4533 157.267 31.9333 157.213 33.24C157.16 34.5467 157.093 35.5067 157.013 36.12C156.88 37.1333 156.52 37.8667 155.933 38.32C155.347 38.8 154.693 39.04 153.973 39.04H148.213C146.027 39.04 144.147 38.76 142.573 38.2C141 37.64 139.707 36.8667 138.693 35.88C137.68 34.8667 136.933 33.68 136.453 32.32C135.973 30.96 135.733 29.48 135.733 27.88C135.733 26.52 135.907 25.16 136.253 23.8C136.6 22.44 137.147 21.2267 137.893 20.16C138.667 19.0667 139.667 18.1867 140.893 17.52C142.147 16.8267 143.653 16.48 145.413 16.48H146.733ZM158.254 27.84C158.254 26.1867 158.494 24.6533 158.974 23.24C159.454 21.8 160.161 20.56 161.094 19.52C162.054 18.48 163.228 17.6667 164.614 17.08C166.001 16.4667 167.588 16.16 169.374 16.16C170.708 16.16 172.001 16.3867 173.254 16.84C174.508 17.2933 175.614 17.9733 176.574 18.88C177.561 19.76 178.361 20.88 178.974 22.24C179.588 23.5733 179.921 25.1333 179.974 26.92C180.001 28.1733 179.734 29.1467 179.174 29.84C178.614 30.5067 177.748 30.84 176.574 30.84H169.174C168.428 30.84 167.881 30.56 167.534 30C167.188 29.44 167.014 28.7867 167.014 28.04C167.014 27.2933 167.214 26.6267 167.614 26.04C168.014 25.4267 168.561 25.12 169.254 25.12H173.054C173.054 24.8 172.988 24.4533 172.854 24.08C172.748 23.7067 172.561 23.3733 172.294 23.08C172.054 22.76 171.708 22.5067 171.254 22.32C170.801 22.1067 170.228 22 169.534 22C168.174 22 167.108 22.4667 166.334 23.4C165.561 24.3067 165.174 25.7867 165.174 27.84C165.174 29.8133 165.574 31.2533 166.374 32.16C167.174 33.0667 168.308 33.56 169.774 33.64C170.494 33.6933 171.254 33.6533 172.054 33.52C172.881 33.36 173.681 33.0667 174.454 32.64C174.854 32.4533 175.268 32.3467 175.694 32.32C176.121 32.2933 176.521 32.3467 176.894 32.48C177.268 32.6133 177.588 32.84 177.854 33.16C178.148 33.48 178.361 33.88 178.494 34.36C178.628 34.8133 178.641 35.24 178.534 35.64C178.428 36.0133 178.268 36.3467 178.054 36.64C177.868 36.9333 177.654 37.1733 177.414 37.36C177.174 37.5733 176.974 37.72 176.814 37.8C175.828 38.3867 174.681 38.8267 173.374 39.12C172.068 39.4133 170.734 39.52 169.374 39.44C167.401 39.3333 165.708 38.9467 164.294 38.28C162.881 37.64 161.721 36.8 160.814 35.76C159.934 34.72 159.281 33.52 158.854 32.16C158.454 30.8 158.254 29.36 158.254 27.84ZM187.601 26.96C187.601 27.4667 187.601 28.1067 187.601 28.88C187.601 29.6533 187.601 30.4667 187.601 31.32C187.601 32.1733 187.601 33.0133 187.601 33.84C187.628 34.6667 187.655 35.4 187.681 36.04C187.681 36.44 187.601 36.8133 187.441 37.16C187.281 37.5333 187.055 37.8533 186.761 38.12C186.468 38.4133 186.108 38.64 185.681 38.8C185.281 38.96 184.828 39.04 184.321 39.04C183.121 39.04 182.241 38.7333 181.681 38.12C181.148 37.5333 180.855 36.8667 180.801 36.12C180.775 35.56 180.748 34.8267 180.721 33.92C180.721 33.0133 180.721 32.0533 180.721 31.04C180.721 30.0267 180.721 29.04 180.721 28.08C180.748 27.0933 180.761 26.28 180.761 25.64C180.761 24.28 180.935 23.04 181.281 21.92C181.655 20.7733 182.201 19.8 182.921 19C183.641 18.2 184.535 17.5867 185.601 17.16C186.695 16.7067 187.961 16.48 189.401 16.48H193.481C194.281 16.48 194.908 16.8267 195.361 17.52C195.841 18.2133 196.081 19.0267 196.081 19.96C196.081 20.8133 195.855 21.5733 195.401 22.24C194.975 22.9067 194.321 23.24 193.441 23.24H191.561C190.441 23.24 189.495 23.52 188.721 24.08C187.975 24.6133 187.601 25.5733 187.601 26.96Z" fill="#FC5621"/>
<path d="M82 25L92 25" stroke="#FC5621" stroke-width="5" stroke-linecap="round"/>
<path d="M24.2605 8C26.6783 8 28.7752 9.31186 29.8255 11.2332C30.9232 10.3313 32.3492 9.78661 33.9077 9.78655C37.3772 9.78655 40.1908 12.4855 40.1908 15.8147C40.1906 16.9828 39.8419 18.0721 39.2425 18.9956C42.3112 19.3926 44.6772 21.9143 44.6772 24.9677C44.6772 27.5042 43.0443 29.6727 40.7324 30.5627C40.961 31.1875 41.0876 31.8586 41.0878 32.5583C41.0878 35.8874 38.2753 38.5863 34.806 38.5865C33.1564 38.5865 31.6556 37.9759 30.5347 36.978C30.5389 37.0671 30.5422 37.1569 30.5422 37.2469C30.5422 40.5762 27.73 43.2751 24.2605 43.2751C20.791 43.2751 17.9787 40.5762 17.9787 37.2469C17.9787 37.2225 17.9796 37.1979 17.98 37.1735C16.8876 38.0548 15.4791 38.5865 13.9402 38.5865C10.4706 38.5865 7.65837 35.8876 7.65837 32.5583C7.65841 31.8861 7.77327 31.24 7.98489 30.6363C5.56962 29.796 3.84375 27.5755 3.84375 24.9677C3.84382 21.8462 6.31648 19.2775 9.48497 18.9695C8.89609 18.0517 8.55551 16.9715 8.55538 15.8147C8.55538 12.4856 11.3679 9.78666 14.8372 9.78655C16.323 9.78655 17.6875 10.2825 18.7632 11.11C19.8345 9.25563 21.8943 8.00004 24.2605 8ZM28.3416 18.6085C27.2436 19.51 25.819 20.0563 24.2605 20.0563C22.7741 20.0563 21.409 19.5597 20.3333 18.7317C19.3597 20.4164 17.5716 21.607 15.4777 21.8105C16.0673 22.7289 16.4086 23.81 16.4086 24.9677C16.4086 25.6398 16.291 26.2852 16.0795 26.8887C18.4956 27.7283 20.2217 29.9501 20.2219 32.5583C20.2219 32.5827 20.2197 32.6076 20.2195 32.632C21.3119 31.7502 22.7213 31.2187 24.2605 31.2187C25.9097 31.2187 27.4098 31.8298 28.5305 32.8273C28.5265 32.7384 28.5229 32.6484 28.5229 32.5583C28.5232 30.0228 30.1557 27.8538 32.4664 26.9634C32.2382 26.3388 32.1137 25.6672 32.1137 24.9677C32.1137 23.7995 32.4599 22.7094 33.0595 21.7857C31.005 21.5194 29.2667 20.3016 28.3416 18.6085Z" fill="#FC5621"/>
<path d="M32.0467 14.5312C34.1262 14.5314 35.8124 16.1884 35.8126 18.2325C35.8126 19.5453 35.3815 20.8767 34.5239 21.6625C36.1432 23.5943 37.1037 25.8413 37.1037 27.9234C37.1033 33.0342 31.3224 37.1773 24.1924 37.1773C17.0625 37.1773 11.2827 33.0342 11.2822 27.9234C11.2822 25.7107 12.3653 23.3116 14.1722 21.3026C13.5377 20.5049 13.2188 19.3617 13.2188 18.2325C13.2191 16.1884 14.9053 14.5312 16.9847 14.5312C18.6395 14.5315 20.3154 15.6503 20.9319 17.1371C21.9733 16.8604 23.0662 16.7088 24.1924 16.7087C25.5295 16.7087 26.8191 16.9239 28.032 17.3064C28.587 15.7356 30.3296 14.5312 32.0467 14.5312Z" fill="white"/>
</svg>
