<svg width="24" height="24" viewBox="0 0 24 24" fill="none" xmlns="http://www.w3.org/2000/svg">
<path fill-rule="evenodd" clip-rule="evenodd" d="M18.8808 0.679125C18.9962 0.421432 19.2148 0.213674 19.4922 0.0982783C19.7696 -0.0171174 20.0847 -0.0314452 20.3732 0.0582206C20.6618 0.147886 20.9019 0.334782 21.0447 0.580739C21.1875 0.826697 21.2221 1.11316 21.1414 1.38163L21.096 1.50181L17.9742 8.51598L18.76 8.70717C20.0159 9.01418 21.0613 9.94612 21.2599 11.2179C21.4297 12.3104 21.5888 13.9711 21.3699 15.682C21.1522 17.3776 20.5446 19.2634 19.0411 20.6487C18.4885 21.1579 17.6955 21.2387 17.1596 21.2474C16.5484 21.2562 15.8439 21.171 15.1203 21.0399C13.6658 20.7755 11.9219 20.286 10.2713 19.766L9.77612 19.6075L8.8037 19.2863L7.87074 18.9684L6.9928 18.6592L5.82302 18.2353L4.83983 17.8693L3.86262 17.4924C3.67086 17.4184 3.50356 17.2999 3.37727 17.1488C3.25098 16.9976 3.17006 16.819 3.14252 16.6305C3.11497 16.442 3.14176 16.2502 3.22022 16.0741C3.29868 15.898 3.42611 15.7436 3.58991 15.6263C5.23693 14.4463 6.78349 13.0894 8.08843 11.8362L8.72117 11.22L9.02019 10.9207L9.58475 10.3449L9.84789 10.0696L10.5584 9.31026L10.9615 8.86669C11.3835 8.3937 11.9377 8.03366 12.5653 7.82461C13.1929 7.61557 13.8707 7.56529 14.527 7.67909L14.765 7.72934L15.6466 7.94457L18.8808 0.679125ZM10.7737 12.4076C9.46411 13.7314 8.07489 14.9876 6.61245 16.1704C7.3006 16.4246 7.99155 16.6722 8.68528 16.9133C9.32303 16.4981 9.89672 16.0064 10.3909 15.4515C10.6005 15.2239 10.7954 14.9853 10.9746 14.7369L11.1445 14.4835C11.3019 14.2358 11.5595 14.0544 11.8618 13.9785C12.1641 13.9026 12.487 13.9381 12.7609 14.0775C13.0348 14.2168 13.2379 14.4489 13.3264 14.7236C13.4149 14.9984 13.3817 15.2939 13.234 15.5465C12.9542 16.0054 12.6037 16.4359 12.2389 16.8401C11.9433 17.1684 11.627 17.4807 11.2916 17.7753C11.8442 17.9479 12.3968 18.1118 12.9326 18.2626C13.3788 17.9818 13.9015 17.405 14.3751 16.7494C14.5657 16.4872 14.7459 16.2177 14.9158 15.9409L15.1598 15.5214C15.3004 15.2616 15.5484 15.0635 15.8489 14.9707C16.1495 14.8779 16.4781 14.898 16.7625 15.0265C17.0469 15.155 17.2638 15.3814 17.3654 15.656C17.467 15.9305 17.4451 16.2307 17.3044 16.4905C17.0305 16.9952 16.7111 17.4836 16.3714 17.9534C16.1357 18.2806 15.8826 18.5971 15.6131 18.9017L16.1166 18.9913C16.5496 19.0645 17.0065 19.1159 17.4192 19.0383C18.3354 18.1479 18.8103 16.8554 18.9933 15.4274C19.0355 15.0953 19.0626 14.7661 19.0746 14.4398L10.7737 12.4076ZM14.1455 9.84015C13.903 9.78491 13.6483 9.79447 13.4117 9.86769C13.175 9.9409 12.9664 10.0747 12.8106 10.2531L12.52 10.5732L18.9765 12.1531L18.9203 11.7248L18.8916 11.5259C18.8473 11.2495 18.6332 10.9895 18.2804 10.8595L18.1416 10.818L14.1455 9.84015ZM4.87093 6.2544L4.94748 6.40736C5.27364 7.02365 5.78733 7.54104 6.42705 7.89759L6.54666 7.96096C6.55909 7.96747 6.56941 7.97685 6.57659 7.98817C6.58377 7.99949 6.58756 8.01234 6.58756 8.02542C6.58756 8.03851 6.58377 8.05136 6.57659 8.06267C6.56941 8.07399 6.55909 8.08338 6.54666 8.08988L6.42705 8.15325C5.78743 8.51055 5.27414 9.02872 4.94867 9.64567L4.87212 9.79754C4.86549 9.81132 4.85461 9.82305 4.8408 9.83128C4.82699 9.83951 4.81086 9.8439 4.79438 9.8439C4.77789 9.8439 4.76176 9.83951 4.74795 9.83128C4.73415 9.82305 4.72326 9.81132 4.71663 9.79754L4.64008 9.64458C4.31391 9.02828 3.80023 8.5109 3.16051 8.15434L3.0409 8.09098C3.02847 8.08447 3.01814 8.07509 3.01096 8.06377C3.00378 8.05245 3 8.0396 3 8.02652C3 8.01343 3.00378 8.00058 3.01096 7.98926C3.01814 7.97795 3.02847 7.96856 3.0409 7.96206L3.16051 7.89869C3.79969 7.54122 4.31255 7.02307 4.63769 6.40627L4.71424 6.2544C4.72087 6.24061 4.73175 6.22889 4.74556 6.22066C4.75937 6.21242 4.7755 6.20804 4.79198 6.20804C4.80847 6.20804 4.8246 6.21242 4.83841 6.22066C4.85221 6.22889 4.86429 6.24061 4.87093 6.2544ZM8.25828 0.945707C8.30612 0.847378 8.45683 0.847378 8.50467 0.945707L8.62667 1.18825C9.14682 2.16895 9.96476 2.99232 10.983 3.56018L11.1708 3.66178C11.191 3.67199 11.2078 3.68695 11.2195 3.7051C11.2312 3.72326 11.2374 3.74395 11.2374 3.76503C11.2374 3.78611 11.2312 3.8068 11.2195 3.82496C11.2078 3.84311 11.191 3.85807 11.1708 3.86827L10.9818 3.96879C9.9634 4.53694 9.14543 5.36071 8.62548 6.34181L8.50587 6.58435C8.49533 6.60633 8.478 6.62502 8.45602 6.63814C8.43403 6.65127 8.40834 6.65826 8.38207 6.65826C8.35581 6.65826 8.33011 6.65127 8.30813 6.63814C8.28614 6.62502 8.26882 6.60633 8.25828 6.58435L8.13627 6.34181C7.61632 5.36071 6.79836 4.53694 5.77996 3.96879L5.59098 3.86827C5.57079 3.85807 5.55396 3.84311 5.54224 3.82496C5.53052 3.8068 5.52434 3.78611 5.52434 3.76503C5.52434 3.74395 5.53052 3.72326 5.54224 3.7051C5.55396 3.68695 5.57079 3.67199 5.59098 3.66178L5.78116 3.56018C6.79938 2.99232 7.61733 2.16895 8.13747 1.18825L8.25708 0.945707H8.25828Z" fill="#FF6E3F"/>
</svg>
