<svg width="18" height="21" viewBox="0 0 18 21" fill="none" xmlns="http://www.w3.org/2000/svg">
<path d="M9 1V3" stroke="#C0C0C0" stroke-width="2" stroke-linecap="round" stroke-linejoin="round"/>
<path d="M9 3C5.69 3 3 5.69 3 9V15C2 15 1 16 1 17H9M9 3C12.31 3 15 5.69 15 9V15C16 15 17 16 17 17H9" fill="#C0C0C0"/>
<path d="M9 3C5.69 3 3 5.69 3 9V15C2 15 1 16 1 17H9H17C17 16 16 15 15 15V9C15 5.69 12.31 3 9 3Z" stroke="#C0C0C0" stroke-width="2" stroke-linecap="round" stroke-linejoin="round"/>
<path d="M7 18C7 19.1 7.9 20 9 20C10.1 20 11 19.1 11 18" stroke="#C0C0C0" stroke-width="2" stroke-linecap="round" stroke-linejoin="round"/>
</svg>
