<svg width="18" height="18" viewBox="0 0 18 18" fill="none" xmlns="http://www.w3.org/2000/svg">
<path fill-rule="evenodd" clip-rule="evenodd" d="M9 0C9.25574 0 9.50102 0.108186 9.68185 0.300757C9.86269 0.493329 9.96429 0.754513 9.96429 1.02685V2.45075C12.1718 2.70407 14.2134 3.81737 15.6968 5.57664C17.1801 7.3359 18.0004 9.61696 18 11.9813C18 12.526 17.7968 13.0483 17.4351 13.4335C17.0735 13.8186 16.5829 14.035 16.0714 14.035H1.92857C1.41708 14.035 0.926543 13.8186 0.564866 13.4335C0.203188 13.0483 7.97623e-09 12.526 7.97623e-09 11.9813C-9.34074e-05 9.61719 0.820357 7.33648 2.30366 5.5775C3.78696 3.81852 5.82844 2.70541 8.03572 2.45212V1.02822C8.03555 0.893256 8.06036 0.759582 8.10875 0.63484C8.15713 0.510099 8.22813 0.396738 8.31769 0.301241C8.40725 0.205744 8.51361 0.129985 8.63069 0.0782951C8.74776 0.0266055 8.87326 -1.19967e-07 9 0ZM1.00286 15.9463C0.747113 15.9463 0.501843 16.0545 0.321004 16.2471C0.140166 16.4396 0.0385715 16.7008 0.0385715 16.9732C0.0385715 17.2455 0.140166 17.5067 0.321004 17.6992C0.501843 17.8918 0.747113 18 1.00286 18H16.9971C17.2529 18 17.4982 17.8918 17.679 17.6992C17.8598 17.5067 17.9614 17.2455 17.9614 16.9732C17.9614 16.7008 17.8598 16.4396 17.679 16.2471C17.4982 16.0545 17.2529 15.9463 16.9971 15.9463H1.00286Z" fill="#C0C0C0"/>
</svg>
