<svg width="18" height="20" viewBox="0 0 18 20" fill="none" xmlns="http://www.w3.org/2000/svg">
<path d="M9 1V2.89474" stroke="#FF6E3F" stroke-width="2" stroke-linecap="round" stroke-linejoin="round"/>
<path d="M9 2.89453C5.69 2.89453 3 5.44295 3 8.57874V14.263C2 14.263 1 15.2103 1 16.1577H9M9 2.89453C12.31 2.89453 15 5.44295 15 8.57874V14.263C16 14.263 17 15.2103 17 16.1577H9" fill="#FF6E3F"/>
<path d="M9 2.89453C5.69 2.89453 3 5.44295 3 8.57874V14.263C2 14.263 1 15.2103 1 16.1577H9H17C17 15.2103 16 14.263 15 14.263V8.57874C15 5.44295 12.31 2.89453 9 2.89453Z" stroke="#FF6E3F" stroke-width="2" stroke-linecap="round" stroke-linejoin="round"/>
<path d="M7 17.1055C7 18.1476 7.9 19.0002 9 19.0002C10.1 19.0002 11 18.1476 11 17.1055" stroke="#FF6E3F" stroke-width="2" stroke-linecap="round" stroke-linejoin="round"/>
</svg>
